
<svg width="100" height="100" xmlns="http://www.w3.org/2000/svg" xmlns:svg="http://www.w3.org/2000/svg">
  <style>
    .cursor {
      fill: #f03131;
      animation: blink 1.4s infinite;
    }
    @keyframes blink {
      0%, 50% { opacity: 1; }
      51%, 100% { opacity: 0; }
    }
  </style>

 <g class="layer" display="inline">
  <rect fill="#1b1f24" height="100" id="background" width="100"/>
  <path id="r" fill="#e5e7eb" d="M21.58 52.93L21.58 52.93L21.58 60.80L30.30 60.80L30.30 68.96L4.21 68.96L4.21 60.80L12.09 60.80L12.09 39.85L5.62 39.85L5.62 31.70L20.18 31.70L21.27 40.10L22.60 40.10Q23.16 30.99 32.13 30.99L32.13 30.99Q37.44 30.99 40.27 34.89Q43.10 38.80 43.10 46.14L43.10 46.14L33.61 46.14Q33.61 42.84 32.39 41.40Q31.18 39.96 28.51 39.96L28.51 39.96Q25.03 39.96 23.30 43.33Q21.58 46.71 21.58 52.93Z" />
  <path id="gt" fill="#e5e7eb" d="M83.97 55.75L47.97 69.04L47.97 59.54L74.34 51.35L74.34 50.72L47.97 42.53L47.97 33.04L83.97 46.32L83.97 55.75Z" />
  <rect class="cursor" height="60" id="cursor" width="4" x="90" y="20"/>
 </g>
</svg>
